<svg width="256" height="256">
        <g transform="scale(4)">
            <rect width="64" height="64" rx="2" fill="#ff0000" />
            <path
                d="m43.7229,13.2685q-2.0126,0.4112 -5.0314,1.2337L38.6915,46.7842l3.8239,-2.2618q-1.0063,-2.4674 -2.2138,-4.7292l0.4025,-0.4112q4.6289,3.9067 5.2327,5.5517 0.6038,1.6449 0.6038,2.0562 0,1.0281 -0.805,2.0562 -0.805,0.8225 -1.2075,0.8225 -0.2013,0 -0.4025,-0.8225 -0.4025,-1.4393 -1.2075,-3.4955 -3.6226,2.8786 -6.0377,6.1685l-2.0126,-2.673q0.805,-1.2337 1.0063,-3.4955l0,-30.637l-5.4339,0.8225q0,8.0191 0,12.337 0,4.318 -0.4025,8.2247 -0.2013,3.9067 -2.2138,9.2528 -2.0126,5.346 -8.2515,9.8696l-0.4025,-0.6169q6.0377,-6.1685 7.2452,-13.7764 1.2075,-7.6078 1.2075,-13.7764 0.2013,-6.1685 -0.2013,-14.5988l3.0188,1.8506q12.8804,-2.673 18.1131,-5.9629l2.6163,3.2899q-2.4151,0.2056 -6.0377,1.2337 0.6038,17.4775 3.2201,25.4965 2.6163,8.0191 7.2452,11.1033l0,0.6169q-2.6163,0 -3.8239,2.0562 -3.2201,-4.1123 -5.6352,-11.7202 -2.2138,-7.6078 -2.4151,-27.3471zM10.3144,48.8403q3.2201,0.6169 5.0314,0.6169 2.0126,-0.2056 2.8176,-2.673 1.0063,-2.4674 1.2075,-7.8135 0.4025,-5.5517 0.2013,-9.2528 -3.4214,5.9629 -10.8679,11.9258l-0.2013,-0.8225q6.8427,-7.1966 10.4653,-15.2157 -0.6038,-2.673 -1.6101,-5.5517 -2.6163,3.0843 -8.4528,6.7854l-0.4025,-0.8225q5.8364,-4.9348 8.0503,-7.8135 -2.4151,-4.1123 -5.6352,-7.1966l0.4025,-0.6169q4.4276,3.2899 6.6415,6.1685 3.8239,-4.7292 4.8302,-7.8135l3.6226,2.8786 -2.0126,0.8225q-3.2201,3.4955 -5.4339,5.7573 3.4214,6.991 3.4214,15.8325 0,8.8415 -1.4088,13.3651 -1.2075,4.5236 -6.239,6.5798 -0.2013,-2.673 -4.6289,-4.318z"
                stroke-width="1"
                fill="#ffffff"
                stroke="#ffffff"
            />
            <path d="M15,39l49,0l0,16l-49,0z" fill="#404040" fill-opacity="0.9" />
            <path
                d="M 29.2603 44.1435 q -1.902 2.1168 -4.7971 4.336 q 1.1328 1.0552 2.0769 2.2384 l -0.5734 0.3837 q -2.1818 -2.5645 -4.7412 -4.4 l 0.5594 -0.4605 q 1.0489 0.7482 2.1608 1.7395 q 2.7761 -2.1296 4.3286 -3.8244 l -9.0697 0 l 0 -0.6907 l 10.0557 0 z"
                stroke-width="0.6"
                fill="#ffffff"
                stroke="#ffffff"
            />
            <path
                d="M 37.309 44.2075 l -0.4895 0.5372 q -1.1188 -0.9337 -2.958 -1.9506 l 0.4405 -0.5372 q 1.4405 0.7355 3.007 1.9506 z m 6.1746 0.5372 q -1.4965 2.9482 -3.7412 4.3616 q -2.2447 1.4134 -5.7131 1.7971 l -0.3287 -0.6651 q 3.2587 -0.3198 5.4474 -1.586 q 2.1888 -1.2727 3.7481 -4.3744 z"
                stroke-width="0.6"
                fill="#ffffff"
                stroke="#ffffff"
            />
            <path
                d="M 58.707 42.9668 l -0.6014 0.3262 q -0.7133 -0.9465 -1.5734 -1.7139 l 0.5734 -0.339 q 1.007 0.9401 1.6014 1.7267 z m -1.6713 1.3622 q -0.0839 2.0913 -0.3217 3.9971 q -0.2308 1.9058 -0.4126 2.3215 q -0.1818 0.4093 -0.5454 0.6139 q -0.3636 0.2046 -1.007 0.2046 q -0.5594 0 -1.5384 -0.1151 l -0.1748 -0.6587 q 0.8182 0.1023 1.5804 0.1023 q 0.4895 0 0.6294 -0.064 q 0.1468 -0.0703 0.2447 -0.1919 q 0.0979 -0.1279 0.2797 -1.0488 q 0.1888 -0.9209 0.3077 -2.1744 q 0.1259 -1.2535 0.1538 -2.3087 l -3.7412 0 q -0.2028 4.4575 -4.6083 6.7598 l -0.5315 -0.486 q 4.2586 -2.2703 4.3845 -6.2738 l -4.1256 0.0001 l 0 -0.6779 l 4.1537 0 q 0.0769 -0.793 0.0769 -1.7907 q 0 -0.4796 -0.021 -1.0488 l 0.7762 0 q 0.014 1.1767 -0.0559 2.8395 z m 0.056 -0.7994 l -0.6014 0.3006 q -0.5734 -0.8378 -1.5314 -1.7779 l 0.6154 -0.3453 q 0.9021 0.9337 1.5174 1.8226 z"
                stroke-width="0.6"
                fill="#ffffff"
                stroke="#ffffff"
            />
        </g>
</svg>
